# Blender v2.79 (sub 0) OBJ File: 'Real ship(full) Cut.blend'
# www.blender.org
mtllib Real ship.mtl
o Cube
v -0.991687 -0.933697 -8.117285
v -0.991686 -0.933697 -10.117285
v -0.991687 1.066303 -8.117285
v -0.991687 1.066303 -10.117285
v -0.991688 -0.933697 -6.078066
v -0.991688 1.066303 -6.078066
v -0.991688 -0.933697 -4.038846
v -0.991688 1.066302 -4.038846
v -0.991689 -0.933697 -1.999627
v -0.991689 1.066302 -1.999628
v -0.991689 -0.933697 0.039592
v -0.991689 1.066302 0.039592
v -0.991689 -0.933697 2.078811
v -0.991689 1.066302 2.078811
v -0.991689 -0.933697 4.118030
v -0.991689 1.066302 4.118030
v -0.991689 -0.933697 6.157250
v -0.991689 1.066302 6.157250
v -0.991689 -0.933697 8.196469
v -0.991689 1.066302 8.196469
v -0.991689 -0.933697 10.235688
v -0.991689 1.066302 10.235688
v -0.991689 -0.933697 12.274907
v -0.991689 1.066302 12.274907
v -3.006240 -0.933697 -8.117285
v -3.006240 1.066303 -8.117285
v -3.006241 -0.933698 -6.078066
v -3.006241 1.066302 -6.078066
v -3.006241 -0.933698 -4.038846
v -3.006241 1.066302 -4.038846
v -3.006242 -0.933698 -1.999627
v -3.006242 1.066302 -1.999628
v -3.006242 -0.933698 0.039592
v -3.006242 1.066302 0.039592
v -3.006242 -0.933698 2.078811
v -3.006242 1.066302 2.078811
v -3.006242 -0.933698 4.118030
v -3.006242 1.066302 4.118030
v -3.006242 -0.933698 6.157250
v -3.006242 1.066302 6.157250
v -4.865004 -0.933697 -8.117285
v -4.865005 1.066303 -8.117285
v -4.865005 -0.933698 -6.078066
v -4.865005 1.066302 -6.078066
v -4.865005 -0.933698 -4.038846
v -4.865005 1.066302 -4.038846
v -4.865005 -0.933698 -1.999627
v -4.865005 1.066302 -1.999628
v -4.865006 -0.933698 0.039592
v -4.865006 1.066302 0.039592
v -4.865006 -0.933698 2.078811
v -4.865006 1.066302 2.078811
v -6.922268 -0.933698 -6.078066
v -6.922268 1.066302 -6.078066
v -6.922269 -0.933698 -4.038846
v -6.922269 1.066302 -4.038846
v -6.922269 -0.933698 -1.999627
v -6.922269 1.066302 -1.999628
v -6.922270 -0.933698 0.039592
v -6.922270 1.066302 0.039592
v -6.922270 -0.933698 2.078811
v -6.922270 1.066302 2.078811
v -4.865006 -0.933698 3.942825
v -4.865006 1.066302 3.942825
v -6.922270 -0.933698 3.942825
v -6.922270 1.066302 3.942825
v -4.865006 -0.933698 5.806839
v -4.865006 1.066302 5.806839
v -6.922270 -0.933698 5.806839
v -6.922270 1.066302 5.806839
v -9.056305 -0.933698 -6.078067
v -9.056305 1.066302 -6.078067
v -9.056305 -0.933698 -4.038847
v -9.056305 1.066302 -4.038847
v -11.190342 -0.933698 -6.078067
v -11.190342 1.066302 -6.078067
v -11.190342 -0.933698 -4.038847
v -11.190342 1.066302 -4.038847
v -9.056305 -0.933697 -2.078483
v -9.056305 1.066303 -2.078484
v -11.190342 -0.933697 -2.078483
v -11.190342 1.066303 -2.078484
v -9.056305 -0.933697 -0.118120
v -9.056305 1.066303 -0.118121
v -11.190342 -0.933697 -0.118120
v -11.190342 1.066303 -0.118121
v -6.922268 -0.933698 -8.083763
v -6.922268 1.066302 -8.083763
v -9.056305 -0.933698 -8.083764
v -9.056305 1.066302 -8.083764
v -11.190342 -0.933698 -8.083764
v -11.190342 1.066302 -8.083764
v -9.056305 -0.933698 -10.083268
v -9.056305 1.066302 -10.083268
v -11.190342 -0.933698 -10.083268
v -11.190342 1.066302 -10.083268
v 0.991687 -0.933697 -8.117285
v 0.991686 -0.933697 -10.117285
v 0.991687 1.066303 -8.117285
v 0.991687 1.066303 -10.117285
v 0.991688 -0.933697 -6.078066
v 0.991688 1.066303 -6.078066
v 0.991688 -0.933697 -4.038846
v 0.991688 1.066302 -4.038846
v 0.991689 -0.933697 -1.999627
v 0.991689 1.066302 -1.999628
v 0.991689 -0.933697 0.039592
v 0.991689 1.066302 0.039592
v 0.991689 -0.933697 2.078811
v 0.991689 1.066302 2.078811
v 0.991689 -0.933697 4.118030
v 0.991689 1.066302 4.118030
v 0.991689 -0.933697 6.157250
v 0.991689 1.066302 6.157250
v 0.991689 -0.933697 8.196469
v 0.991689 1.066302 8.196469
v 0.991689 -0.933697 10.235688
v 0.991689 1.066302 10.235688
v 0.991689 -0.933697 12.274907
v 0.991689 1.066302 12.274907
v 3.006240 -0.933697 -8.117285
v 3.006240 1.066303 -8.117285
v 3.006241 -0.933698 -6.078066
v 3.006241 1.066302 -6.078066
v 3.006241 -0.933698 -4.038846
v 3.006241 1.066302 -4.038846
v 3.006242 -0.933698 -1.999627
v 3.006242 1.066302 -1.999628
v 3.006242 -0.933698 0.039592
v 3.006242 1.066302 0.039592
v 3.006242 -0.933698 2.078811
v 3.006242 1.066302 2.078811
v 3.006242 -0.933698 4.118030
v 3.006242 1.066302 4.118030
v 3.006242 -0.933698 6.157250
v 3.006242 1.066302 6.157250
v 4.865004 -0.933697 -8.117285
v 4.865005 1.066303 -8.117285
v 4.865005 -0.933698 -6.078066
v 4.865005 1.066302 -6.078066
v 4.865005 -0.933698 -4.038846
v 4.865005 1.066302 -4.038846
v 4.865005 -0.933698 -1.999627
v 4.865005 1.066302 -1.999628
v 4.865006 -0.933698 0.039592
v 4.865006 1.066302 0.039592
v 4.865006 -0.933698 2.078811
v 4.865006 1.066302 2.078811
v 6.922268 -0.933698 -6.078066
v 6.922268 1.066302 -6.078066
v 6.922269 -0.933698 -4.038846
v 6.922269 1.066302 -4.038846
v 6.922269 -0.933698 -1.999627
v 6.922269 1.066302 -1.999628
v 6.922270 -0.933698 0.039592
v 6.922270 1.066302 0.039592
v 6.922270 -0.933698 2.078811
v 6.922270 1.066302 2.078811
v 4.865006 -0.933698 3.942825
v 4.865006 1.066302 3.942825
v 6.922270 -0.933698 3.942825
v 6.922270 1.066302 3.942825
v 4.865006 -0.933698 5.806839
v 4.865006 1.066302 5.806839
v 6.922270 -0.933698 5.806839
v 6.922270 1.066302 5.806839
v 9.056305 -0.933698 -6.078067
v 9.056305 1.066302 -6.078067
v 9.056305 -0.933698 -4.038847
v 9.056305 1.066302 -4.038847
v 11.190342 -0.933698 -6.078067
v 11.190342 1.066302 -6.078067
v 11.190342 -0.933698 -4.038847
v 11.190342 1.066302 -4.038847
v 9.056305 -0.933697 -2.078483
v 9.056305 1.066303 -2.078484
v 11.190342 -0.933697 -2.078483
v 11.190342 1.066303 -2.078484
v 9.056305 -0.933697 -0.118120
v 9.056305 1.066303 -0.118121
v 11.190342 -0.933697 -0.118120
v 11.190342 1.066303 -0.118121
v 6.922268 -0.933698 -8.083763
v 6.922268 1.066302 -8.083763
v 9.056305 -0.933698 -8.083764
v 9.056305 1.066302 -8.083764
v 11.190342 -0.933698 -8.083764
v 11.190342 1.066302 -8.083764
v 9.056305 -0.933698 -10.083268
v 9.056305 1.066302 -10.083268
v 11.190342 -0.933698 -10.083268
v 11.190342 1.066302 -10.083268
vt 0.591478 0.387924
vt 0.591478 0.421134
vt 0.557989 0.421134
vt 0.557989 0.387924
vt 0.511169 0.437551
vt 0.504970 0.373384
vt 0.659112 0.387924
vt 0.659112 0.421134
vt 0.624966 0.421134
vt 0.624966 0.387924
vt 0.538624 0.331027
vt 0.576888 0.349773
vt 0.449547 0.441226
vt 0.442758 0.385158
vt 0.391455 0.448302
vt 0.384343 0.392005
vt 0.326579 0.399427
vt 0.268501 0.407345
vt 0.260906 0.348550
vt 0.319060 0.341574
vt 0.334039 0.455762
vt 0.693257 0.387924
vt 0.693257 0.421134
vt 0.727403 0.387924
vt 0.727403 0.421134
vt 0.659112 0.354191
vt 0.693257 0.354191
vt 0.114771 0.434796
vt 0.083454 0.403721
vt 0.106917 0.377918
vt 0.122713 0.398030
vt 0.276078 0.463585
vt 0.217096 0.470996
vt 0.209806 0.416519
vt 0.166703 0.474345
vt 0.160203 0.427649
vt 0.829839 0.387923
vt 0.829839 0.421134
vt 0.795694 0.421134
vt 0.795694 0.387923
vt 0.433869 0.327719
vt 0.485940 0.322550
vt 0.376748 0.333456
vt 0.119699 0.482496
vt 0.075543 0.484356
vt 0.069974 0.449738
vt 0.863984 0.387923
vt 0.863984 0.421134
vt 0.898130 0.387923
vt 0.898130 0.421134
vt 0.057745 0.419529
vt 0.932275 0.387923
vt 0.932275 0.421134
vt 0.029141 0.428672
vt 0.036884 0.457706
vt 0.006906 0.464215
vt 0.000091 0.435811
vt 0.999909 0.387923
vt 0.999909 0.421134
vt 0.966421 0.421134
vt 0.966421 0.387923
vt 0.042404 0.487865
vt 0.012537 0.492540
vt 0.659112 0.323067
vt 0.693257 0.323067
vt 0.131051 0.363567
vt 0.150630 0.388631
vt 0.147810 0.342588
vt 0.196414 0.357785
vt 0.795694 0.354191
vt 0.829839 0.354191
vt 0.761548 0.387923
vt 0.761548 0.354191
vt 0.863984 0.354191
vt 0.436444 0.269747
vt 0.370086 0.278915
vt 0.359131 0.210388
vt 0.435159 0.200439
vt 0.795694 0.323067
vt 0.761548 0.323067
vt 0.761548 0.288620
vt 0.795694 0.288620
vt 0.727403 0.323067
vt 0.693257 0.288620
vt 0.727403 0.288620
vt 0.257490 0.296485
vt 0.312329 0.289899
vt 0.727403 0.354191
vt 0.478602 0.291490
vt 0.659112 0.288620
vt 0.659112 0.252887
vt 0.693257 0.252887
vt 0.307736 0.184545
vt 0.301731 0.239313
vt 0.285706 0.203475
vt 0.255310 0.210249
vt 0.256927 0.246468
vt 0.215630 0.241052
vt 0.224449 0.206854
vt 0.197580 0.296332
vt 0.161222 0.258333
vt 0.183686 0.226033
vt 0.484938 0.245110
vt 0.480914 0.212696
vt 0.198091 0.196573
vt 0.826905 0.288620
vt 0.826905 0.323067
vt 0.146816 0.313963
vt 0.128202 0.283435
vt 0.135496 0.233373
vt 0.157371 0.208196
vt 0.429422 0.135152
vt 0.366977 0.131121
vt 0.392913 0.072511
vt 0.435002 0.084711
vt 0.310169 0.146823
vt 0.476940 0.086625
vt 0.483872 0.137092
vt 0.441564 0.045558
vt 0.407781 0.036347
vt 0.625528 0.288620
vt 0.625528 0.252887
vt 0.659112 0.217154
vt 0.693257 0.217154
vt 0.726082 0.217154
vt 0.726082 0.252887
vt 0.358470 0.050963
vt 0.378448 0.020321
vt 0.291100 0.109592
vt 0.329389 0.084793
vt 0.302309 0.053417
vt 0.330239 0.026946
vt 0.495583 0.191901
vt 0.474962 0.175139
vt 0.515936 0.163060
vt 0.516516 0.082179
vt 0.523542 0.120734
vt 0.625528 0.217154
vt 0.477010 0.047490
vt 0.592047 0.252887
vt 0.558558 0.252887
vt 0.558558 0.217154
vt 0.592047 0.217154
vt 0.538906 0.145046
vt 0.514102 0.045077
vt 0.578812 0.451549
vt 0.548397 0.472372
vt 0.341995 0.512760
vt 0.284908 0.521699
vt 0.693257 0.454866
vt 0.659112 0.454866
vt 0.139258 0.514549
vt 0.130624 0.537995
vt 0.101375 0.521258
vt 0.503372 0.489907
vt 0.453991 0.497110
vt 0.398749 0.505620
vt 0.074077 0.515866
vt 0.045161 0.517020
vt 0.016420 0.520628
vt 0.693257 0.485990
vt 0.659112 0.485990
vt 0.157757 0.544404
vt 0.169039 0.514580
vt 0.179537 0.559237
vt 0.221142 0.530762
vt 0.829839 0.454866
vt 0.795694 0.454866
vt 0.761548 0.454866
vt 0.761548 0.421134
vt 0.863984 0.454866
vt 0.470112 0.550038
vt 0.486470 0.614107
vt 0.413888 0.624887
vt 0.406307 0.558364
vt 0.795694 0.485990
vt 0.795694 0.520438
vt 0.761548 0.520438
vt 0.761548 0.485990
vt 0.727403 0.485990
vt 0.727403 0.520438
vt 0.693257 0.520438
vt 0.349279 0.563203
vt 0.295900 0.571817
vt 0.727403 0.454866
vt 0.503645 0.520003
vt 0.693257 0.556171
vt 0.659112 0.556171
vt 0.659112 0.520438
vt 0.373282 0.662653
vt 0.347727 0.651135
vt 0.352898 0.613379
vt 0.317537 0.653188
vt 0.289655 0.664927
vt 0.271902 0.635395
vt 0.309075 0.618902
vt 0.246186 0.658376
vt 0.216085 0.634432
vt 0.239535 0.588509
vt 0.520453 0.560511
vt 0.525160 0.590978
vt 0.267887 0.681897
vt 0.826905 0.485990
vt 0.826905 0.520438
vt 0.178031 0.620260
vt 0.186796 0.586375
vt 0.498380 0.675520
vt 0.516892 0.720297
vt 0.481557 0.742697
vt 0.442120 0.695820
vt 0.385695 0.696656
vt 0.547753 0.659347
vt 0.554799 0.707396
vt 0.533336 0.754425
vt 0.504840 0.771882
vt 0.625528 0.556171
vt 0.625528 0.520438
vt 0.693257 0.591904
vt 0.659112 0.591904
vt 0.726082 0.556171
vt 0.726082 0.591904
vt 0.482237 0.794413
vt 0.455729 0.771665
vt 0.420003 0.748421
vt 0.378208 0.735947
vt 0.436274 0.801242
vt 0.403577 0.784460
vt 0.544025 0.606145
vt 0.570220 0.627133
vt 0.529577 0.626859
vt 0.588384 0.663804
vt 0.592205 0.700943
vt 0.625528 0.591904
vt 0.565281 0.743213
vt 0.592047 0.556171
vt 0.592047 0.591904
vt 0.558559 0.591904
vt 0.558559 0.556171
vt 0.595988 0.637523
vt 0.599874 0.735545
vt 0.624966 0.354191
vt 0.518825 0.305803
vt 0.506650 0.277813
vt 0.624966 0.323067
vt 0.106624 0.256526
vt 0.891606 0.323067
vt 0.858117 0.323067
vt 0.858117 0.288620
vt 0.891606 0.288620
vt 0.173312 0.182272
vt 0.351408 0.000091
vt 0.792396 0.252887
vt 0.758907 0.252887
vt 0.758907 0.217154
vt 0.792396 0.217154
vt 0.268511 0.076463
vt 0.624966 0.454866
vt 0.536349 0.497982
vt 0.531961 0.525815
vt 0.624966 0.485990
vt 0.199036 0.665058
vt 0.165452 0.651560
vt 0.891606 0.485990
vt 0.891606 0.520438
vt 0.858117 0.520438
vt 0.858117 0.485990
vt 0.226573 0.682442
vt 0.248729 0.702202
vt 0.462863 0.820193
vt 0.792396 0.556171
vt 0.792396 0.591904
vt 0.758907 0.591904
vt 0.758907 0.556171
vt 0.366387 0.772400
vn 0.0000 0.0000 -1.0000
vn 0.0000 -1.0000 0.0000
vn 0.0000 1.0000 0.0000
vn -1.0000 -0.0000 -0.0000
vn 0.0000 0.0000 1.0000
vn 1.0000 0.0000 0.0000
usemtl Material.001
s off
f 4/1/1 100/2/1 98/3/1 2/4/1
f 2/4/2 98/3/2 97/5/2 1/6/2
f 6/7/3 102/8/3 99/9/3 3/10/3
f 1/6/4 3/11/4 4/12/4 2/4/4
f 97/5/2 101/13/2 5/14/2 1/6/2
f 101/13/2 103/15/2 7/16/2 5/14/2
f 9/17/2 11/18/2 33/19/2 31/20/2
f 103/15/2 105/21/2 9/17/2 7/16/2
f 8/22/3 104/23/3 102/8/3 6/7/3
f 10/24/3 106/25/3 104/23/3 8/22/3
f 8/22/3 6/7/3 28/26/3 30/27/3
f 17/28/5 18/29/5 40/30/5 39/31/5
f 105/21/2 107/32/2 11/18/2 9/17/2
f 107/32/2 109/33/2 13/34/2 11/18/2
f 109/33/2 111/35/2 15/36/2 13/34/2
f 16/37/3 112/38/3 110/39/3 14/40/3
f 1/6/2 5/14/2 27/41/2 25/42/2
f 5/14/2 7/16/2 29/43/2 27/41/2
f 111/35/2 113/44/2 17/28/2 15/36/2
f 113/44/2 115/45/2 19/46/2 17/28/2
f 18/47/3 114/48/3 112/38/3 16/37/3
f 20/49/3 116/50/3 114/48/3 18/47/3
f 18/29/4 17/28/4 19/46/4 20/51/4
f 22/52/3 118/53/3 116/50/3 20/49/3
f 22/54/4 21/55/4 23/56/4 24/57/4
f 20/51/4 19/46/4 21/55/4 22/54/4
f 23/58/5 119/59/5 120/60/5 24/61/5
f 115/45/2 117/62/2 21/55/2 19/46/2
f 117/62/2 119/63/2 23/56/2 21/55/2
f 24/61/3 120/60/3 118/53/3 22/52/3
f 30/27/3 28/26/3 44/64/3 46/65/3
f 38/66/4 37/67/4 39/31/4 40/30/4
f 36/68/4 35/69/4 37/67/4 38/66/4
f 16/37/3 14/40/3 36/70/3 38/71/3
f 11/18/2 13/34/2 35/69/2 33/19/2
f 15/36/2 17/28/2 39/31/2 37/67/2
f 7/16/2 9/17/2 31/20/2 29/43/2
f 14/40/3 12/72/3 34/73/3 36/70/3
f 18/47/3 16/37/3 38/71/3 40/74/3
f 13/34/2 15/36/2 37/67/2 35/69/2
f 43/75/2 45/76/2 55/77/2 53/78/2
f 52/79/3 50/80/3 60/81/3 62/82/3
f 48/83/3 46/65/3 56/84/3 58/85/3
f 31/20/2 33/19/2 49/86/2 47/87/2
f 32/88/3 30/27/3 46/65/3 48/83/3
f 27/41/2 29/43/2 45/76/2 43/75/2
f 34/73/3 32/88/3 48/83/3 50/80/3
f 25/42/2 27/41/2 43/75/2 41/89/2
f 29/43/2 31/20/2 47/87/2 45/76/2
f 56/84/3 54/90/3 72/91/3 74/92/3
f 56/93/4 55/77/4 57/94/4 58/95/4
f 60/96/4 59/97/4 61/98/4 62/99/4
f 45/76/2 47/87/2 57/94/2 55/77/2
f 46/65/3 44/64/3 54/90/3 56/84/3
f 61/98/2 51/100/2 63/101/2 65/102/2
f 49/86/2 51/100/2 61/98/2 59/97/2
f 44/103/1 43/75/1 53/78/1 54/104/1
f 62/99/4 61/98/4 65/102/4 66/105/4
f 52/79/3 62/82/3 66/106/3 64/107/3
f 51/100/6 52/108/6 64/109/6 63/101/6
f 65/102/2 63/101/2 67/110/2 69/111/2
f 71/112/2 73/113/2 77/114/2 75/115/2
f 55/77/5 56/93/5 74/116/5 73/113/5
f 53/78/2 55/77/2 73/113/2 71/112/2
f 71/112/2 75/115/2 91/117/2 89/118/2
f 76/119/4 75/115/4 77/114/4 78/120/4
f 72/91/3 54/90/3 88/121/3 90/122/3
f 74/92/3 72/91/3 76/123/3 78/124/3
f 74/92/3 78/124/3 82/125/3 80/126/3
f 78/120/4 77/114/4 81/127/4 82/128/4
f 73/113/6 74/116/6 80/129/6 79/130/6
f 77/114/2 73/113/2 79/130/2 81/127/2
f 81/127/2 79/130/2 83/131/2 85/132/2
f 88/133/1 87/134/1 89/118/1 90/135/1
f 89/118/2 91/117/2 95/136/2 93/137/2
f 53/78/2 71/112/2 89/118/2 87/134/2
f 76/123/3 72/91/3 90/122/3 92/138/3
f 54/104/6 53/78/6 87/134/6 88/133/6
f 75/115/4 76/119/4 92/139/4 91/117/4
f 94/140/1 93/141/1 95/142/1 96/143/1
f 90/135/6 89/118/6 93/137/6 94/144/6
f 92/138/3 90/122/3 94/140/3 96/143/3
f 91/117/4 92/139/4 96/145/4 95/136/4
f 97/5/6 98/3/6 100/146/6 99/147/6
f 105/21/2 127/148/2 129/149/2 107/32/2
f 104/23/3 126/150/3 124/151/3 102/8/3
f 113/44/5 135/152/5 136/153/5 114/154/5
f 97/5/2 121/155/2 123/156/2 101/13/2
f 101/13/2 123/156/2 125/157/2 103/15/2
f 114/154/6 116/158/6 115/45/6 113/44/6
f 118/159/6 120/160/6 119/63/6 117/62/6
f 116/158/6 118/159/6 117/62/6 115/45/6
f 126/150/3 142/161/3 140/162/3 124/151/3
f 134/163/6 136/153/6 135/152/6 133/164/6
f 132/165/6 134/163/6 133/164/6 131/166/6
f 112/38/3 134/167/3 132/168/3 110/39/3
f 107/32/2 129/149/2 131/166/2 109/33/2
f 111/35/2 133/164/2 135/152/2 113/44/2
f 103/15/2 125/157/2 127/148/2 105/21/2
f 110/39/3 132/168/3 130/169/3 108/170/3
f 114/48/3 136/171/3 134/167/3 112/38/3
f 109/33/2 131/166/2 133/164/2 111/35/2
f 139/172/2 149/173/2 151/174/2 141/175/2
f 148/176/3 158/177/3 156/178/3 146/179/3
f 144/180/3 154/181/3 152/182/3 142/161/3
f 127/148/2 143/183/2 145/184/2 129/149/2
f 128/185/3 144/180/3 142/161/3 126/150/3
f 123/156/2 139/172/2 141/175/2 125/157/2
f 130/169/3 146/179/3 144/180/3 128/185/3
f 121/155/2 137/186/2 139/172/2 123/156/2
f 125/157/2 141/175/2 143/183/2 127/148/2
f 152/182/3 170/187/3 168/188/3 150/189/3
f 152/190/6 154/191/6 153/192/6 151/174/6
f 156/193/6 158/194/6 157/195/6 155/196/6
f 141/175/2 151/174/2 153/192/2 143/183/2
f 142/161/3 152/182/3 150/189/3 140/162/3
f 157/195/2 161/197/2 159/198/2 147/199/2
f 145/184/2 155/196/2 157/195/2 147/199/2
f 140/200/1 150/201/1 149/173/1 139/172/1
f 158/194/6 162/202/6 161/197/6 157/195/6
f 148/176/3 160/203/3 162/204/3 158/177/3
f 147/199/4 159/198/4 160/205/4 148/206/4
f 167/207/2 171/208/2 173/209/2 169/210/2
f 151/174/5 169/210/5 170/211/5 152/190/5
f 149/173/2 167/207/2 169/210/2 151/174/2
f 167/207/2 185/212/2 187/213/2 171/208/2
f 172/214/6 174/215/6 173/209/6 171/208/6
f 168/188/3 186/216/3 184/217/3 150/189/3
f 170/187/3 174/218/3 172/219/3 168/188/3
f 170/187/3 176/220/3 178/221/3 174/218/3
f 174/215/6 178/222/6 177/223/6 173/209/6
f 169/210/4 175/224/4 176/225/4 170/211/4
f 173/209/2 177/223/2 175/224/2 169/210/2
f 177/223/2 181/226/2 179/227/2 175/224/2
f 184/228/1 186/229/1 185/212/1 183/230/1
f 185/212/2 189/231/2 191/232/2 187/213/2
f 149/173/2 183/230/2 185/212/2 167/207/2
f 172/219/3 188/233/3 186/216/3 168/188/3
f 150/201/4 184/228/4 183/230/4 149/173/4
f 171/208/6 187/213/6 188/234/6 172/214/6
f 190/235/1 192/236/1 191/237/1 189/238/1
f 186/229/4 190/239/4 189/231/4 185/212/4
f 188/233/3 192/236/3 190/235/3 186/216/3
f 187/213/6 191/232/6 192/240/6 188/234/6
f 3/10/3 99/9/3 100/2/3 4/1/3
usemtl Material.002
f 6/7/3 3/10/3 26/241/3 28/26/3
f 14/40/3 110/39/3 108/170/3 12/72/3
f 12/72/3 108/170/3 106/25/3 10/24/3
f 10/24/3 8/22/3 30/27/3 32/88/3
f 26/242/1 25/42/1 41/89/1 42/243/1
f 28/26/3 26/241/3 42/244/3 44/64/3
f 12/72/3 10/24/3 32/88/3 34/73/3
f 3/11/1 1/6/1 25/42/1 26/242/1
f 42/243/4 41/89/4 43/75/4 44/103/4
f 63/101/6 64/109/6 68/245/6 67/110/6
f 67/246/5 68/247/5 70/248/5 69/249/5
f 66/105/4 65/102/4 69/111/4 70/250/4
f 64/107/3 66/106/3 70/248/3 68/247/3
f 82/128/4 81/127/4 85/132/4 86/251/4
f 83/252/5 84/253/5 86/254/5 85/255/5
f 79/130/6 80/129/6 84/256/6 83/131/6
f 80/126/3 82/125/3 86/254/3 84/253/3
f 102/8/3 124/151/3 122/257/3 99/9/3
f 106/25/3 128/185/3 126/150/3 104/23/3
f 122/258/1 138/259/1 137/186/1 121/155/1
f 124/151/3 140/162/3 138/260/3 122/257/3
f 108/170/3 130/169/3 128/185/3 106/25/3
f 99/147/1 122/258/1 121/155/1 97/5/1
f 138/259/6 140/200/6 139/172/6 137/186/6
f 159/198/4 163/261/4 164/262/4 160/205/4
f 163/263/5 165/264/5 166/265/5 164/266/5
f 161/197/2 165/267/2 163/261/2 159/198/2
f 162/202/6 166/268/6 165/267/6 161/197/6
f 160/203/3 164/266/3 166/265/3 162/204/3
f 178/222/6 182/269/6 181/226/6 177/223/6
f 179/270/5 181/271/5 182/272/5 180/273/5
f 175/224/4 179/227/4 180/274/4 176/225/4
f 176/220/3 180/273/3 182/272/3 178/221/3
usemtl Material.003
f 33/19/2 35/69/2 51/100/2 49/86/2
f 35/69/5 36/68/5 52/108/5 51/100/5
f 50/80/3 48/83/3 58/85/3 60/81/3
f 36/70/3 34/73/3 50/80/3 52/79/3
f 58/95/4 57/94/4 59/97/4 60/96/4
f 47/87/2 49/86/2 59/97/2 57/94/2
f 129/149/2 145/184/2 147/199/2 131/166/2
f 131/166/5 147/199/5 148/206/5 132/165/5
f 146/179/3 156/178/3 154/181/3 144/180/3
f 132/168/3 148/176/3 146/179/3 130/169/3
f 154/191/6 156/193/6 155/196/6 153/192/6
f 143/183/2 153/192/2 155/196/2 145/184/2
